All The Episodes of The World God Only Knows aka Kami Nomi zo Shiru Sekai (Ep 1-12) at 480p Video Quality :)

Please seed after you download.

--------------------------------------------------------------------------------

Cover
--------------------------------------------------------------------------------
      
http://img163.imageshack.us/img163/1372/theworldonlygodknowscur.jpg
--------------------------------------------------------------------------------

Info
---------------------------------------------------------------------------------

General
--------

Format                                   : MPEG-4
Format profile                           : Base Media
Codec ID                                 : isom
File size                                : 73.5 MiB
Duration                                 : 23mn 34s
Overall bit rate mode                    : Variable
Overall bit rate                         : 436 Kbps

Video
---------------------------------------

ID                                       : 1
Format                                   : AVC
Format/Info                              : Advanced Video Codec
Format profile                           : High@L3.0
Format settings, CABAC                   : Yes
Format settings, ReFrames                : 4 frames
Codec ID                                 : avc1
Codec ID/Info                            : Advanced Video Coding
Duration                                 : 23mn 34s
Bit rate                                 : 369 Kbps
Maximum bit rate                         : 3 659 Kbps
Width                                    : 640 pixels
Height                                   : 360 pixels
Display aspect ratio                     : 16:9
Frame rate mode                          : Constant
Frame rate                               : 23.976 fps
Color space                              : YUV
Chroma subsampling                       : 4:2:0
Bit depth                                : 8 bits
Scan type                                : Progressive
Bits/(Pixel*Frame)                       : 0.067
Stream size                              : 62.2 MiB (85%)
Writing library                          : x264 core 119 r2106 07efeb4

Audio
----------------------------------

ID                                       : 2
Format                                   : AAC
Format/Info                              : Advanced Audio Codec
Format profile                           : LC
Codec ID                                 : 40
Duration                                 : 23mn 34s
Bit rate mode                            : Variable
Bit rate                                 : 64.0 Kbps
Maximum bit rate                         : 74.2 Kbps
Channel(s)                               : 2 channels
Channel positions                        : Front: L R
Sampling rate                            : 44.1 KHz
Compression mode                         : Lossy
Delay relative to video                  : 83ms
Stream size                              : 10.8 MiB (15%)

----------------------------------------------------------------------------------

Screenshots
----------------------------------------------------------------------------------
            
http://img855.imageshack.us/img855/8320/59835879.png
            
http://img607.imageshack.us/img607/709/98464039.png
            
http://img842.imageshack.us/img842/826/28649289.png
            
http://img829.imageshack.us/img829/1342/15843194.png
            
http://img534.imageshack.us/img534/4074/64105582.png
   

----------------------------------------------------------------------------------

Story
----------------------------------------------------------------------------------

Dating sim master Keima Katsuragi wants nothing more than to immerse himself in the 2D world, chasing digital girlfriends. But when the so-called "Capturing God" answers a mysterious email from an unknown sender, Keima finds himself chasing down real-life ladies in an attempt to help the peppy demon Elsie de Lute Irma capture "lost souls" escaped from the depths of hell. Now, lest the explosive collar around his neck detonate, Keima must convince various girls to fall in love with him in order to scare out the souls hiding in their hearts.

----------------------------------------------------------------------------------

Thank you for downloading. 

Enjoy Watching :)				
				